<?xml version="1.0" encoding="UTF-8" standalone="no"?>
<svg
   xmlns:dc="http://purl.org/dc/elements/1.1/"
   xmlns:cc="http://creativecommons.org/ns#"
   xmlns:rdf="http://www.w3.org/1999/02/22-rdf-syntax-ns#"
   xmlns:svg="http://www.w3.org/2000/svg"
   xmlns="http://www.w3.org/2000/svg"
   xmlns:sodipodi="http://sodipodi.sourceforge.net/DTD/sodipodi-0.dtd"
   xmlns:inkscape="http://www.inkscape.org/namespaces/inkscape"
   id="logo"
   width="1000"
   height="800"
   version="1.0"
   viewBox="0 0 750 600.00002"
   sodipodi:docname="logo-header.svg"
   inkscape:version="0.92.3 (2405546, 2018-03-11)">
  <defs
     id="defs14" />
  <sodipodi:namedview
     pagecolor="#ffffff"
     bordercolor="#666666"
     borderopacity="1"
     objecttolerance="10"
     gridtolerance="10"
     guidetolerance="10"
     inkscape:pageopacity="0"
     inkscape:pageshadow="2"
     inkscape:window-width="1840"
     inkscape:window-height="1057"
     id="namedview12"
     showgrid="false"
     units="px"
     inkscape:zoom="1.8304629"
     inkscape:cx="874.1994"
     inkscape:cy="357.3917"
     inkscape:window-x="72"
     inkscape:window-y="-8"
     inkscape:window-maximized="1"
     inkscape:current-layer="bar" />
  <metadata
     id="metadata2">
    <rdf:RDF>
      <cc:Work
         rdf:about="">
        <dc:format>image/svg+xml</dc:format>
        <dc:type
           rdf:resource="http://purl.org/dc/dcmitype/StillImage" />
        <dc:title></dc:title>
      </cc:Work>
    </rdf:RDF>
  </metadata>
  <g
     transform="matrix(0.099045,0,0,-0.099265,0.0082905,572.9923)"
     id="g9">
    <path
       id="brian"
       d="M 2325,5434 C 1545,5314 848,4859 431,4198 364,4091 266,3911 271,3905 c 7,-7 2164,-926 2186,-932 l 23,-5 v 2482 l -32,-1 c -18,-1 -73,-7 -123,-15 z"
       inkscape:connector-curvature="0" />
    <path
       id="melissa"
       d="m 2970,4205 c 0,-821 3,-1245 10,-1245 10,0 2211,938 2219,945 2,2 -19,46 -46,97 -409,774 -1158,1306 -2014,1432 -59,9 -121,16 -138,16 h -31 z"
       inkscape:connector-curvature="0" />
    <path
       id="lydia"
       d="m 80,3378 c -90,-411 -95,-824 -14,-1216 76,-369 255,-760 491,-1072 66,-88 213,-258 224,-259 3,-1 362,367 798,816 541,559 787,819 778,824 -31,18 -2224,952 -2243,956 -19,4 -23,-2 -34,-49 z"
       inkscape:connector-curvature="0" />
    <path
       id="amber"
       d="M 1950,1318 C 1524,878 1174,512 1172,506 c -1,-6 42,-39 97,-73 464,-290 925,-423 1466,-423 541,0 1002,133 1466,423 55,34 98,67 97,73 -4,16 -1548,1608 -1562,1611 -6,1 -360,-358 -786,-799 z"
       inkscape:connector-curvature="0" />
    <path
       id="penny"
       d="m 4226,2950 c -615,-264 -1120,-481 -1122,-483 -6,-5 1578,-1638 1586,-1635 15,6 166,182 232,270 231,308 410,701 483,1064 67,331 74,710 19,1039 -28,169 -44,225 -62,224 -9,0 -520,-216 -1136,-479 z"
       inkscape:connector-curvature="0" />
  </g>
  <g
     inkscape:groupmode="layer"
     id="bar"
     inkscape:label="Bar"
     style="display:inline">
    <path
       style="fill:#000000;fill-opacity:1;stroke-width:2.16059899"
       d="M 379.43847,-0.93749998 A 305.80611,318.80114 0 0 1 597.59453,304.34986 305.80611,318.80114 0 0 1 406.15535,599.82619 H 750.33944 V -0.93749998 Z"
       id="rect3370"
       inkscape:connector-curvature="0" />
  </g>
</svg>
