<?xml version="1.0" encoding="UTF-8"?>
<svg id="logo" class="site-logo" width="1e3" height="800" version="1.0" viewBox="0 0 750 600" xmlns="http://www.w3.org/2000/svg" xmlns:cc="http://creativecommons.org/ns#" xmlns:dc="http://purl.org/dc/elements/1.1/" xmlns:rdf="http://www.w3.org/1999/02/22-rdf-syntax-ns#">
    <metadata>
        <rdf:RDF>
            <cc:Work rdf:about="">
                <dc:format>image/svg+xml</dc:format>
                <dc:type rdf:resource="http://purl.org/dc/dcmitype/StillImage" />
                <dc:title />
            </cc:Work>
        </rdf:RDF>
    </metadata>
    <g transform="matrix(.099045 0 0 -.099265 .0082905 572.99)">
        <path d="m2325 5434c-780-120-1477-575-1894-1236-67-107-165-287-160-293 7-7 2164-926 2186-932l23-5v2482l-32-1c-18-1-73-7-123-15z" />
        <path d="m2970 4205c0-821 3-1245 10-1245 10 0 2211 938 2219 945 2 2-19 46-46 97-409 774-1158 1306-2014 1432-59 9-121 16-138 16h-31z" />
        <path d="m80 3378c-90-411-95-824-14-1216 76-369 255-760 491-1072 66-88 213-258 224-259 3-1 362 367 798 816 541 559 787 819 778 824-31 18-2224 952-2243 956s-23-2-34-49z" />
        <path d="m1950 1318c-426-440-776-806-778-812-1-6 42-39 97-73 464-290 925-423 1466-423s1002 133 1466 423c55 34 98 67 97 73-4 16-1548 1608-1562 1611-6 1-360-358-786-799z" />
        <path d="m4226 2950c-615-264-1120-481-1122-483-6-5 1578-1638 1586-1635 15 6 166 182 232 270 231 308 410 701 483 1064 67 331 74 710 19 1039-28 169-44 225-62 224-9 0-520-216-1136-479z" />
    </g>
    <g>
        <path d="m379.44-0.9375a305.81 318.8 0 0 1 218.16 305.29 305.81 318.8 0 0 1 -191.44 295.48h344.18v-600.76z" stroke-width="2.1606" />
    </g>
</svg>