<?xml version="1.0" encoding="UTF-8"?>
<svg width="185mm" height="148.76mm" version="1.1" viewBox="0 0 655.51162 527.0866" xmlns="http://www.w3.org/2000/svg" xmlns:cc="http://creativecommons.org/ns#" xmlns:dc="http://purl.org/dc/elements/1.1/" xmlns:rdf="http://www.w3.org/1999/02/22-rdf-syntax-ns#">
<metadata>
<rdf:RDF>
<cc:Work rdf:about="">
<dc:format>image/svg+xml</dc:format>
<dc:type rdf:resource="http://purl.org/dc/dcmitype/StillImage"/>
<dc:title/>
</cc:Work>
</rdf:RDF>
</metadata>
<g>
<path transform="scale(.9375)" d="m404.73-1a275.2 300 0 0 1 196.32 287.28 275.2 300 0 0 1 -172.28 278.05h271.22v-565.33z" stroke-width="1.0667"/>
</g>
<g transform="translate(-96.457 -96.457)">
<path transform="matrix(0,-1,-1,0,0,0)" d="m-100-350a250 250 0 0 1 -250 250l-1e-5 -250z"/>
<path transform="rotate(-90)" d="m-100 370a250 250 0 0 1 -250 250l-1e-5 -250z"/>
<path transform="rotate(90)" d="m620-350a250 250 0 0 1 -250 250l-1e-5 -250z"/>
<path transform="matrix(0,1,1,0,0,0)" d="m620 370a250 250 0 0 1 -250 250l-1e-5 -250z"/>
</g>
</svg>
